<?xml version="1.0" encoding="UTF-8"?>
<svg version="1.1" viewBox="0 0 1417.3 1984.25" xmlns="http://www.w3.org/2000/svg">
<style type="text/css">
	.st0{fill:none;stroke:#263B4C;stroke-width:0.2835;stroke-miterlimit:10;}
	.st1{fill:none;stroke:#263B4C;stroke-width:0.2835;stroke-linejoin:bevel;stroke-miterlimit:10;}
</style>

  <line class="st0" x1="70.87" x2="1346.5" y1="70.87" y2="70.87"/>
  <line class="st0" x1="70.87" x2="1346.5" y1="181.42" y2="181.42"/>
	<line class="st0" x1="70.87" x2="1346.5" y1="748.35" y2="748.35"/>
	<line class="st0" x1="70.87" x2="1346.5" y1="992.13" y2="992.13"/>
  <line class="st0" x1="70.87" x2="1346.5" y1="1235.9" y2="1235.9"/>
  <line class="st0" x1="70.87" x2="1346.5" y1="1802.8" y2="1802.8"/>
  <line class="st0" x1="70.87" x2="1346.5" y1="1913.4" y2="1913.4"/>

  <line class="st0" x1="70.87" x2="70.87" y1="70.87" y2="1913.4"/>
	<line class="st0" x1="181.42" x2="181.42" y1="70.87" y2="1913.4"/>
	<line class="st0" x1="584.05" x2="584.05" y1="70.87" y2="1913.4"/>
	<line class="st0" x1="708.66" x2="708.66" y1="70.87" y2="1913.4"/>
	<line class="st0" x1="833.25" x2="833.25" y1="70.87" y2="1913.4"/>
  <line class="st0" x1="1235.9" x2="1235.9" y1="70.87" y2="1913.4"/>
  <line class="st0" x1="1346.5" x2="1346.5" y1="70.87" y2="1913.4"/>

	<path class="st0" d="m1235.9 748.35c0-291.19-236.06-527.24-527.24-527.24s-527.25 236.05-527.25 527.24"/>
	<path class="st0" d="m181.42 1235.9c0 145.59 59.01 277.41 154.43 372.82 95.41 95.41 227.22 154.43 372.82 154.43s277.41-59.01 372.82-154.43c95.41-95.41 154.43-227.22 154.43-372.82"/>

	<polyline class="st1" points="181.42 1235.9 1235.9 181.42 181.42 1802.8 1235.9 748.35"/>
	<polyline class="st1" points="181.42 748.35 1235.9 1802.8 181.42 181.42 1235.9 1235.9"/>

</svg>
